
        <svg width="2593.5219873564324" height="3366.121558491475" xmlns="http://www.w3.org/2000/svg" xmlns:xlink="http://www.w3.org/1999/xlink" version="1.1">
            <rect fill="#123f46" width="2593.5219873564324" height="3366.121558491475"/>
            <g transform="scale(18.306077924573742) translate(10, 10)">
                <defs id="SvgjsDefs1002"/><g id="main_text" rel="mainfill" name="main_text" xmlns:name="mainText_mainfill" fill="#ffffff" transform="translate(1.1377278825800161, 108.28000068664551)"><path d="M13.28 26.88 c0.36 0 0.68 0 1 0.08 l0 3.08 c-0.32 -0.08 -0.68 -0.08 -0.96 -0.08 c-3.96 0 -7.2 2.84 -7.76 7.52 l0 10.52 l-3.28 0 l0 -20.8 l3.28 0 l0 5.48 c0.76 -3.08 3.6 -5.8 7.72 -5.8 z M21.04 19.72 l0 2.92 l-3.28 0 l0 -2.92 l3.28 0 z M21.04 27.2 l0 20.8 l-3.28 0 l0 -20.8 l3.28 0 z M36.36 26.84 c4.72 0 10.44 3.6 10.44 10.76 c0 7.24 -5.72 10.8 -10.44 10.8 c-3.68 0 -6.52 -2 -7.48 -4.4 l0 11.6 l-3.28 0 l0 -13.04 l0 -15.36 l3.28 0 l0 3.92 c0.96 -2.24 3.8 -4.28 7.48 -4.28 z M36 45.48 c3.52 0 7.6 -2.6 7.6 -7.88 c0 -5.24 -4.08 -7.84 -7.6 -7.84 c-3.56 0 -7.28 2.52 -7.28 7.84 c0 5.36 3.72 7.88 7.28 7.88 z M59.92 29.96 l-4.4 0 l0 13.4 c0 1.24 0.48 2 1.68 2 c1.04 0 1.8 -0.24 2.68 -0.64 l0 2.8 c-0.88 0.44 -1.92 0.72 -3.56 0.72 c-2.12 0 -4.04 -0.96 -4.04 -4.6 l0 -13.68 l-2.88 0 l0 -2.76 l2.88 0 l0 -4.88 l3.24 0 l0 4.88 l4.4 0 l0 2.76 z M66.88000000000001 19.72 l0 2.92 l-3.28 0 l0 -2.92 l3.28 0 z M66.88000000000001 27.2 l0 20.8 l-3.28 0 l0 -20.8 l3.28 0 z M88.48000000000002 19.72 l3.28 0 l0 12.36 l0 15.92 l-3.28 0 l0 -4 c-0.96 2.4 -3.8 4.4 -7.48 4.4 c-4.72 0 -10.44 -3.56 -10.44 -10.8 c0 -7.16 5.72 -10.76 10.44 -10.76 c3.68 0 6.52 2.04 7.48 4.28 l0 -11.4 z M81.36000000000001 45.48 c3.56 0 7.28 -2.52 7.28 -7.88 c0 -5.32 -3.72 -7.84 -7.28 -7.84 c-3.52 0 -7.6 2.6 -7.6 7.84 c0 5.28 4.08 7.88 7.6 7.88 z M106.08000000000001 26.84 c4.72 0 11.04 3.6 10.2 11.96 l-17.56 0 c0.52 4.56 4.08 6.8 7.84 6.8 c2.88 0 4.72 -0.8 6.28 -2.32 l1.92 1.76 c-1.88 2.24 -4.6 3.36 -8.24 3.36 c-5.36 0 -11.08 -3.6 -11.08 -10.76 c0 -7.2 5.92 -10.8 10.64 -10.8 z M106.08000000000001 29.68 c-3.08 0 -6.76 2.2 -7.36 6.68 l14.68 0 c-0.4 -4.48 -4.2 -6.68 -7.32 -6.68 z"/></g><g id="SvgjsG1009" rel="mainfill" name="symbol" xmlns:name="symbol_mainfill" fill="#ffffff" transform="translate(0, -8.675460578170576) scale(0.12167545872155042)"><g xmlns="http://www.w3.org/2000/svg"><path class="st0" d="M949,845.5c-38.3-0.9-126.6,1.5-287.5-64.8C616,762,439.5,662.2,452,483.6c6-86,64.9-119,114-114   c49,5,67.5,37.9,67,68c-0.4,23.8-13.5,44.2-28.7,50.3c-25.6,10.4-41.2-19-55.3-6.3c-13.7,12.3,21,52.3,67.5,51.6   C700,532.1,728.4,449.8,733,395c8.9-107-42.2-214.3-174-268c-136.6-55.7-298-12-400.4,160c-30.7,51.5-42.2,75.7-81.6,111.5   c-18.3,16.7-36.6,22.1-57.3,25.1c-0.6,0.1-1.3,0.2-1.9,0.2C7.7,425,0,433.5,0,443.7L0,925c0,41.4,33.6,75,75,75h850   c41.4,0,75-33.6,75-75l0-59.8c0-11.2-9.1-20.2-20.3-20C966,845.4,960.5,845.6,949,845.5z"/></g></g>
            </g>
        </svg>
    